<svg xmlns="http://www.w3.org/2000/svg" fill="none" viewBox="0 0 121 119">
  <path fill="#FFCFB2" d="M23 3H2v7h21V3Z"/>
  <path fill="#169B62" d="M103.562 109.351v7.719a1.93 1.93 0 1 0 3.859 0l-.017-4.712-3.842-3.007ZM94.557 105.231v7.719a1.93 1.93 0 1 0 3.859 0v-7.719h-3.86ZM13.508 117.07a1.93 1.93 0 1 0 3.86 0v-7.719l-3.86 3.006v4.713ZM22.514 112.95a1.93 1.93 0 1 0 3.859 0v-7.719h-3.86v7.719ZM58.535 117.07a1.93 1.93 0 1 0 3.86 0v-7.719h-3.86v7.719ZM67.54 112.95a1.93 1.93 0 1 0 3.86 0v-7.719h-3.86v7.719ZM49.53 112.95a1.93 1.93 0 1 0 3.86 0v-7.719h-3.86v7.719ZM40.518 108.83a1.93 1.93 0 0 0 3.86 0v-7.719l-3.86 1.239v6.48ZM31.519 108.83a1.93 1.93 0 0 0 3.86 0v-6.48l-3.86-1.239v7.719ZM76.546 108.83a1.93 1.93 0 0 0 3.86 0l.005-6.481-3.865-1.238v7.719ZM85.551 102.349v6.481a1.93 1.93 0 1 0 3.86 0v-7.719l-3.86 1.238Z"/>
  <path fill="#FFB88B" d="M1.93 12.865A1.93 1.93 0 0 1 0 10.935V1.93a1.93 1.93 0 0 1 3.86 0v9.005a1.93 1.93 0 0 1-1.93 1.93ZM119 2.573H97.755v7.719H119V2.573Z"/>
  <path fill="#86A5A6" d="M100.622 0 92 18l15-7.714V0h-6.378Z"/>
  <path fill="#AFC3C3" d="M13.507 0v10.292l44.383 7.719 42.95-7.719V0H13.507ZM107.404 10.292v102.066l-6.564-3.007-19.166-51.3 19.166-47.759h6.564Z"/>
  <path fill="#D7E1E1" d="M85.77 94.976h-5.124c-.005 0 .003 7.023.003 7.023l-19.87 9.118L40.908 102v-7.024h-5.12V102L14 112l.017-102H101v98.997l-15.23-6.998v-7.023Z"/>
  <path fill="#AFC3C3" d="M23.157 22.514a1.93 1.93 0 1 0 0-3.86 1.93 1.93 0 0 0 0 3.86ZM30.875 30.232a1.93 1.93 0 1 0 0-3.859 1.93 1.93 0 0 0 0 3.86ZM90.054 82.978a1.93 1.93 0 1 0 0-3.86 1.93 1.93 0 0 0 0 3.86Z"/>
  <path fill="#FF883E" d="M119 13c-1.105 0-2-.873-2-1.95v-9.1c0-1.077.895-1.95 2-1.95s2 .873 2 1.95v9.1c0 1.077-.895 1.95-2 1.95Z"/>
  <path fill="#201D1F" d="M41.107 67h-5.724c-.487 0-.845-.1-1.076-.3-.205-.225-.307-.575-.307-1.05v-24.3c0-.475.102-.813.307-1.013.23-.225.59-.337 1.076-.337h6.185c.41 0 .742.087.999.263.281.175.537.462.768.862l3.457 6.112c.128.225.23.388.308.488.102.1.23.15.384.15h.346c.153 0 .268-.05.345-.15.103-.1.218-.263.346-.488l3.419-6.112c.23-.4.474-.688.73-.862.282-.175.627-.263 1.037-.263h6.223c.487 0 .833.112 1.037.337.23.2.346.538.346 1.013v24.3c0 .475-.115.825-.346 1.05-.204.2-.55.3-1.037.3h-5.916c-.486 0-.845-.1-1.075-.3-.205-.225-.308-.575-.308-1.05v-13.2l-2.266 4.087c-.23.425-.512.738-.845.938-.308.175-.705.262-1.191.262h-1.537c-.486 0-.896-.087-1.229-.262-.307-.2-.576-.513-.807-.938L42.49 52.45v13.2c0 .475-.116.825-.346 1.05-.205.2-.55.3-1.037.3ZM84.617 67h-9.373c-3.201 0-5.583-.625-7.145-1.875-1.537-1.25-2.305-3.175-2.305-5.775V47.687c0-2.6.768-4.524 2.305-5.774C69.66 40.638 72.043 40 75.243 40h9.373c.487 0 .832.112 1.037.337.23.2.346.538.346 1.013v4.538c0 .474-.115.825-.346 1.05-.205.2-.55.3-1.037.3h-7.721c-.794 0-1.383.162-1.767.487-.385.3-.577.762-.577 1.387v8.925c0 .626.192 1.088.576 1.388.385.275.974.413 1.768.413h7.721c.487 0 .832.112 1.037.337.23.2.346.538.346 1.013v4.462c0 .475-.115.825-.346 1.05-.205.2-.55.3-1.037.3Z"/>
  <path fill="#000" d="M38.379 78h-4.224c-.14 0-.242-.03-.308-.088-.059-.066-.088-.169-.088-.308v-7.128c0-.14.03-.238.088-.297.066-.066.169-.099.308-.099h3.509c.718 0 1.25.14 1.595.418.344.271.517.693.517 1.265v.528c0 .308-.055.561-.165.759a.962.962 0 0 1-.484.429c.47.044.817.205 1.045.484.227.279.34.686.34 1.221v1.012c0 .616-.175 1.07-.527 1.364-.345.293-.88.44-1.606.44Zm-2.145-6.05v1.188h.935c.14 0 .242-.037.308-.11.073-.073.11-.183.11-.33v-.308c0-.147-.037-.257-.11-.33-.066-.073-.169-.11-.308-.11h-.935Zm0 2.882v1.298h1.43c.14 0 .242-.037.308-.11.073-.073.11-.183.11-.33v-.429c0-.147-.037-.253-.11-.319-.066-.073-.169-.11-.308-.11h-1.43ZM44.49 72.39l-.517 1.672H45.7l-.517-1.672a.374.374 0 0 0-.099-.143.15.15 0 0 0-.11-.044H44.7a.19.19 0 0 0-.122.044.483.483 0 0 0-.088.143Zm-.627 5.214c0 .14-.032.242-.099.308-.058.059-.157.088-.297.088H41.85c-.139 0-.242-.03-.308-.088-.058-.066-.087-.169-.087-.308V74.7c0-.22.032-.473.099-.759.073-.286.183-.62.33-1.001l.956-2.497a.528.528 0 0 1 .198-.275.683.683 0 0 1 .364-.088h2.959c.139 0 .253.03.34.088.096.059.166.15.21.275l.956 2.497c.147.381.254.715.32 1.001.073.286.11.539.11.759v2.904c0 .14-.033.242-.1.308-.058.059-.157.088-.297.088h-1.66c-.147 0-.257-.03-.33-.088-.066-.066-.1-.169-.1-.308v-1.54h-1.947v1.54ZM51.59 78h-1.65c-.139 0-.241-.03-.307-.088-.059-.066-.088-.169-.088-.308v-7.128c0-.14.029-.238.088-.297.066-.066.168-.099.308-.099h1.144c.139 0 .256.022.352.066a.84.84 0 0 1 .297.231l2.134 2.442v-2.343c0-.14.029-.238.088-.297.066-.066.168-.099.308-.099h1.65c.139 0 .238.033.297.099.066.059.099.158.099.297v7.128c0 .14-.033.242-.1.308-.058.059-.157.088-.296.088h-1.65c-.14 0-.242-.03-.308-.088-.059-.066-.088-.169-.088-.308v-1.353l-1.881-2.277v3.63c0 .14-.033.242-.1.308-.058.059-.157.088-.296.088ZM59.763 78h-1.65c-.14 0-.242-.03-.308-.088-.059-.066-.088-.169-.088-.308v-7.128c0-.14.03-.238.088-.297.066-.066.169-.099.308-.099h1.144c.14 0 .257.022.352.066a.842.842 0 0 1 .297.231l2.134 2.442v-2.343c0-.14.03-.238.088-.297.066-.066.169-.099.308-.099h1.65c.14 0 .238.033.297.099.066.059.099.158.099.297v7.128c0 .14-.033.242-.1.308-.058.059-.157.088-.296.088h-1.65c-.14 0-.242-.03-.308-.088-.059-.066-.088-.169-.088-.308v-1.353l-1.881-2.277v3.63c0 .14-.033.242-.1.308-.058.059-.157.088-.296.088ZM71.39 78h-5.105c-.14 0-.242-.03-.308-.088-.059-.066-.088-.169-.088-.308v-7.128c0-.14.03-.238.088-.297.066-.066.169-.099.308-.099h5.104c.14 0 .238.033.297.099.066.059.1.158.1.297v1.287c0 .14-.034.242-.1.308-.059.059-.158.088-.297.088h-3.036v.847h2.145c.14 0 .238.033.297.099.066.059.1.158.1.297v1.177c0 .14-.034.242-.1.308-.059.059-.158.088-.297.088h-2.145v.946h3.036c.14 0 .238.033.297.099.066.059.1.158.1.297v1.287c0 .14-.034.242-.1.308-.059.059-.158.088-.297.088ZM75.462 72.06v1.408h.825c.191 0 .32-.048.385-.143a.677.677 0 0 0 .1-.374v-.374a.624.624 0 0 0-.1-.363c-.066-.103-.194-.154-.385-.154h-.825ZM75.066 78h-1.694c-.139 0-.242-.03-.308-.088-.058-.066-.088-.169-.088-.308v-7.128c0-.14.03-.238.088-.297.066-.066.169-.099.308-.099h3.663c.822 0 1.386.172 1.694.517.316.337.473.777.473 1.32v.506c0 .308-.047.572-.143.792a.837.837 0 0 1-.473.462c.396.044.715.205.957.484.25.279.374.649.374 1.111v2.332c0 .14-.033.242-.099.308-.058.059-.157.088-.297.088h-1.705c-.139 0-.242-.03-.308-.088-.058-.066-.088-.169-.088-.308v-1.683c0-.161-.033-.279-.099-.352-.058-.08-.165-.121-.319-.121h-1.54v2.156c0 .14-.033.242-.099.308-.058.059-.157.088-.297.088ZM84.715 78H81.24c-.14 0-.242-.03-.308-.088-.058-.066-.088-.169-.088-.308v-1.287c0-.14.03-.238.088-.297.066-.066.169-.099.308-.099h2.96c.094 0 .164-.03.208-.088a.366.366 0 0 0 .077-.231c0-.125-.025-.216-.077-.275-.044-.059-.114-.092-.209-.099l-1.65-.231c-.513-.073-.927-.242-1.243-.506-.308-.264-.462-.704-.462-1.32v-1.155c0-.623.202-1.1.605-1.43.404-.337.96-.506 1.672-.506h3.08c.14 0 .239.033.297.099.066.059.1.158.1.297v1.309c0 .14-.034.242-.1.308-.058.059-.157.088-.297.088h-2.563a.262.262 0 0 0-.22.099.338.338 0 0 0-.077.231c0 .095.026.176.077.242a.292.292 0 0 0 .22.11l1.64.22c.513.073.927.242 1.242.506.316.264.473.704.473 1.32v1.155c0 .623-.205 1.104-.616 1.441-.403.33-.957.495-1.66.495Z"/>
</svg>
