<svg width="421" height="155" viewBox="0 0 421 155" fill="none" xmlns="http://www.w3.org/2000/svg">
<g clip-path="url(#clip0)">
<path d="M53.5524 101.976C51.9547 100.089 49.0453 100.089 47.4476 101.976L7.05239 149.673C4.64476 152.516 -4.07265e-06 150.813 -3.96456e-06 147.088L1.87183e-07 4.00001C2.51282e-07 1.79088 1.79086 1.20097e-05 4 1.22028e-05L97 2.03331e-05C99.2091 2.05262e-05 101 1.79088 101 4.00002L101 147.088C101 150.813 96.3552 152.516 93.9476 149.673L53.5524 101.976Z" fill="#2C5282"/>
<path d="M49.9581 41.4H41.1261L32.2461 64.776L23.2701 41.4H14.2941V75H21.8781V54.168L29.3661 75H35.1261L42.3741 54.168V75H49.9581V41.4ZM81.2519 62.952C80.2919 66.264 77.3159 68.856 72.8039 68.856C66.7079 68.856 62.6279 64.104 62.6279 58.2C62.6279 52.632 66.2759 47.544 72.7079 47.544C77.6519 47.544 80.6279 50.52 81.3479 54.456H89.4599C88.5479 46.728 82.4519 40.536 72.6119 40.536C61.1399 40.536 54.7079 48.984 54.7079 58.2C54.7079 67.608 61.4759 75.864 72.7079 75.864C82.1159 75.864 88.2119 70.056 89.5079 62.952H81.2519Z" fill="white"/>
<path d="M111.712 75H125.92C135.135 75 136.816 68.904 136.816 65.448C136.816 60.408 133.168 58.488 131.2 58.008C133.504 57.384 136.528 55.272 136.528 50.712C136.528 47.352 134.848 41.4 125.632 41.4H111.712V75ZM124.336 60.792C128.08 60.792 128.944 63.336 128.944 64.92C128.944 66.552 128.08 69.048 124.288 69.048H119.44V60.792H124.336ZM119.44 55.08V47.112H124.096C128.032 47.112 128.752 49.56 128.752 51.048C128.752 52.728 127.888 55.08 124.096 55.08H119.44ZM159.079 51.864V55.176C157.831 52.92 155.095 51.288 151.687 51.288C145.543 51.288 140.743 56.52 140.743 63.432C140.743 70.344 145.543 75.576 151.687 75.576C155.239 75.576 157.927 73.848 159.079 71.736V75H166.423V51.864H159.079ZM153.559 69.336C150.247 69.336 148.039 66.648 148.039 63.432C148.039 60.264 150.247 57.528 153.559 57.528C156.871 57.528 159.079 60.264 159.079 63.432C159.079 66.648 156.871 69.336 153.559 69.336ZM172.651 75H179.995V63.384C179.995 59.832 181.483 57.528 184.507 57.528C187.531 57.528 188.539 59.88 188.539 63.144V75H195.883V61.272C195.883 57.96 195.499 55.704 194.059 53.928C192.811 52.392 190.795 51.288 187.627 51.288C183.979 51.288 181.291 52.728 179.995 55.224V51.864H172.651V75ZM201.808 75H209.152V63.384C209.152 59.832 210.64 57.528 213.664 57.528C216.688 57.528 217.696 59.88 217.696 63.144V75H225.04V61.272C225.04 57.96 224.656 55.704 223.216 53.928C221.968 52.392 219.952 51.288 216.784 51.288C213.136 51.288 210.448 52.728 209.152 55.224V51.864H201.808V75ZM253.428 65.208C253.62 63.96 253.668 63.48 253.668 62.568C253.668 56.136 249.06 51.24 241.62 51.24C233.796 51.24 229.476 56.664 229.476 63.432C229.476 70.248 233.844 75.624 241.956 75.624C248.58 75.624 252.612 72.072 253.38 67.704H246.18C245.652 69.192 244.452 70.344 241.86 70.344C238.164 70.344 236.868 67.992 236.868 65.208H253.428ZM241.668 56.424C244.5 56.424 246.468 58.2 246.468 60.984H236.868C236.868 58.056 238.932 56.424 241.668 56.424ZM275.275 51.864C274.603 51.576 273.931 51.48 273.163 51.48C269.803 51.48 267.067 53.448 266.011 55.608V51.864H258.667V75H266.011V65.976C266.011 60.264 268.651 58.2 272.779 58.2C273.643 58.2 274.267 58.296 275.275 58.536V51.864ZM290.827 61.368C286.939 60.072 284.923 59.784 284.923 58.056C284.923 56.712 286.171 56.04 287.707 56.04C289.674 56.04 290.683 57.144 290.683 59.064H297.931C297.931 54.648 294.811 51.24 287.659 51.24C281.803 51.24 277.723 53.496 277.723 58.344C277.723 62.616 280.891 63.816 284.875 65.064C289.243 66.456 291.067 66.744 291.067 68.52C291.067 70.056 289.819 70.68 288.043 70.68C285.883 70.68 284.347 69.72 284.347 67.272H277.146C277.146 72.648 281.131 75.624 287.947 75.624C293.467 75.624 298.267 73.656 298.267 68.232C298.267 63.672 294.907 62.568 290.827 61.368ZM302.431 70.632C302.431 73.272 304.543 75.432 307.279 75.432C310.015 75.432 312.127 73.272 312.127 70.632C312.127 67.992 310.015 65.832 307.279 65.832C304.543 65.832 302.431 67.992 302.431 70.632ZM340.484 60.936C340.052 56.04 336.308 51.24 328.676 51.24C320.324 51.24 316.1 57.048 316.1 63.432C316.1 69.864 320.324 75.624 328.676 75.624C335.78 75.624 339.86 71.496 340.532 66.312H333.188C332.564 68.28 331.412 69.384 328.916 69.384C325.028 69.384 323.444 66.648 323.444 63.432C323.444 60.264 324.98 57.48 328.772 57.48C331.508 57.48 332.9 58.968 333.14 60.936H340.484ZM356.525 75.624C364.541 75.624 369.341 70.056 369.341 63.432C369.341 56.808 364.541 51.24 356.525 51.24C348.509 51.24 343.661 56.808 343.661 63.432C343.661 70.056 348.509 75.624 356.525 75.624ZM356.477 69.336C353.165 69.336 351.005 66.696 351.005 63.432C351.005 60.216 353.165 57.528 356.477 57.528C359.837 57.528 362.045 60.216 362.045 63.432C362.045 66.696 359.837 69.336 356.477 69.336ZM410.123 75V60.744C410.123 56.088 408.731 51.288 402.299 51.288C398.171 51.288 395.915 53.256 394.763 55.464C393.755 52.92 391.403 51.288 387.947 51.288C384.251 51.288 382.091 53.16 381.083 55.224V51.864H373.979V75H381.083V63.528C381.083 58.968 382.811 57.528 385.019 57.528C387.515 57.528 388.523 59.352 388.523 62.472V75H395.627V63.384C395.627 58.92 397.307 57.528 399.515 57.528C402.011 57.528 403.067 59.4 403.067 62.52V75H410.123Z" fill="#1A202C"/>
</g>
<defs>
<clipPath id="clip0">
<rect width="421" height="155" fill="white"/>
</clipPath>
</defs>
</svg>
